<svg width="26" height="27" viewBox="0 0 26 27" fill="none" xmlns="http://www.w3.org/2000/svg">
<path d="M13.1622 26.6671C9.75743 26.6671 6.49208 25.3146 4.08452 22.907C1.67696 20.4995 0.324402 17.2341 0.324402 13.8293C0.324402 10.4245 1.67696 7.15913 4.08452 4.75157C6.49208 2.34401 9.75743 0.991455 13.1622 0.991455C16.567 0.991455 19.8324 2.34401 22.24 4.75157C24.6475 7.15913 26.0001 10.4245 26.0001 13.8293C26.0001 17.2341 24.6475 20.4995 22.24 22.907C19.8324 25.3146 16.567 26.6671 13.1622 26.6671Z" fill="#0E62DC"/>
<path d="M11.4125 21.2238H14.5422V13.4063H16.7267L16.9591 10.7887H14.5422V9.29816C14.5422 8.68059 14.6665 8.43667 15.2652 8.43667H16.9591V5.72046H14.7915C12.4625 5.72046 11.4132 6.74343 11.4132 8.70154V10.7887H9.78479V13.4394H11.4132L11.4125 21.2238Z" fill="white"/>
</svg>
