<svg width="16" height="17" viewBox="0 0 16 17" fill="none" xmlns="http://www.w3.org/2000/svg">
<path d="M7.99982 13.3L4.29982 16.125C4.11649 16.275 3.91649 16.346 3.69982 16.338C3.48315 16.33 3.29149 16.2673 3.12482 16.15C2.95815 16.0333 2.82915 15.875 2.73782 15.675C2.64649 15.475 2.64215 15.2583 2.72482 15.025L4.14982 10.4L0.524819 7.82498C0.324819 7.69165 0.199819 7.51665 0.149819 7.29998C0.0998186 7.08331 0.108152 6.88331 0.174819 6.69998C0.241485 6.51665 0.358152 6.35398 0.524819 6.21198C0.691485 6.06998 0.891485 5.99931 1.12482 5.99998H5.59982L7.04982 1.19998C7.13315 0.966647 7.26248 0.787314 7.43782 0.661981C7.61315 0.536648 7.80049 0.474314 7.99982 0.474981C8.19982 0.474981 8.38749 0.537648 8.56282 0.662981C8.73815 0.788314 8.86715 0.967314 8.94982 1.19998L10.3998 5.99998H14.8748C15.1082 5.99998 15.3082 6.07098 15.4748 6.21298C15.6415 6.35498 15.7582 6.51731 15.8248 6.69998C15.8915 6.88331 15.8998 7.08331 15.8498 7.29998C15.7998 7.51665 15.6748 7.69165 15.4748 7.82498L11.8498 10.4L13.2748 15.025C13.3582 15.2583 13.3542 15.475 13.2628 15.675C13.1715 15.875 13.0422 16.0333 12.8748 16.15C12.7082 16.2666 12.5165 16.3293 12.2998 16.338C12.0832 16.3466 11.8832 16.2756 11.6998 16.125L7.99982 13.3Z" fill="#FFD25F"/>
</svg>
