<svg width="127" height="116" viewBox="0 0 127 116" fill="none" xmlns="http://www.w3.org/2000/svg">
<ellipse cx="2.00949" cy="1.64787" rx="2.00949" ry="1.64763" fill="#46A2E5"/>
<ellipse cx="2.00949" cy="12.8512" rx="2.00949" ry="1.64763" fill="#46A2E5"/>
<ellipse cx="2.00949" cy="24.0553" rx="2.00949" ry="1.64763" fill="#46A2E5"/>
<ellipse cx="2.00949" cy="35.2592" rx="2.00949" ry="1.64763" fill="#46A2E5"/>
<ellipse cx="2.00949" cy="46.4631" rx="2.00949" ry="1.64763" fill="#46A2E5"/>
<ellipse cx="2.00949" cy="57.6672" rx="2.00949" ry="1.64763" fill="#46A2E5"/>
<ellipse cx="2.00949" cy="68.871" rx="2.00949" ry="1.64763" fill="#46A2E5"/>
<ellipse cx="2.00949" cy="80.0746" rx="2.00949" ry="1.64763" fill="#46A2E5"/>
<ellipse cx="2.00949" cy="91.2785" rx="2.00949" ry="1.64763" fill="#46A2E5"/>
<ellipse cx="2.00949" cy="102.483" rx="2.00949" ry="1.64763" fill="#46A2E5"/>
<ellipse cx="2.00949" cy="113.686" rx="2.00949" ry="1.64763" fill="#46A2E5"/>
<ellipse cx="15.674" cy="1.64763" rx="2.00949" ry="1.64763" fill="#46A2E5"/>
<ellipse cx="15.674" cy="12.8512" rx="2.00949" ry="1.64763" fill="#46A2E5"/>
<ellipse cx="15.674" cy="24.0553" rx="2.00949" ry="1.64763" fill="#46A2E5"/>
<ellipse cx="15.674" cy="35.2592" rx="2.00949" ry="1.64763" fill="#46A2E5"/>
<ellipse cx="15.674" cy="46.4631" rx="2.00949" ry="1.64763" fill="#46A2E5"/>
<ellipse cx="15.674" cy="57.6672" rx="2.00949" ry="1.64763" fill="#46A2E5"/>
<ellipse cx="15.674" cy="68.871" rx="2.00949" ry="1.64763" fill="#46A2E5"/>
<ellipse cx="15.674" cy="80.0746" rx="2.00949" ry="1.64763" fill="#46A2E5"/>
<ellipse cx="15.674" cy="91.2785" rx="2.00949" ry="1.64763" fill="#46A2E5"/>
<ellipse cx="15.674" cy="102.483" rx="2.00949" ry="1.64763" fill="#46A2E5"/>
<ellipse cx="15.674" cy="113.686" rx="2.00949" ry="1.64763" fill="#46A2E5"/>
<ellipse cx="29.3386" cy="1.64763" rx="2.00949" ry="1.64763" fill="#46A2E5"/>
<ellipse cx="29.3386" cy="12.8512" rx="2.00949" ry="1.64763" fill="#46A2E5"/>
<ellipse cx="29.3386" cy="24.0553" rx="2.00949" ry="1.64763" fill="#46A2E5"/>
<ellipse cx="29.3386" cy="35.2592" rx="2.00949" ry="1.64763" fill="#46A2E5"/>
<ellipse cx="29.3386" cy="46.4631" rx="2.00949" ry="1.64763" fill="#46A2E5"/>
<ellipse cx="29.3386" cy="57.6672" rx="2.00949" ry="1.64763" fill="#46A2E5"/>
<ellipse cx="29.3386" cy="68.871" rx="2.00949" ry="1.64763" fill="#46A2E5"/>
<ellipse cx="29.3386" cy="80.0746" rx="2.00949" ry="1.64763" fill="#46A2E5"/>
<ellipse cx="29.3386" cy="91.2785" rx="2.00949" ry="1.64763" fill="#46A2E5"/>
<ellipse cx="29.3386" cy="102.483" rx="2.00949" ry="1.64763" fill="#46A2E5"/>
<ellipse cx="29.3386" cy="113.686" rx="2.00949" ry="1.64763" fill="#46A2E5"/>
<ellipse cx="43.0031" cy="1.64763" rx="2.00949" ry="1.64763" fill="#46A2E5"/>
<ellipse cx="43.0031" cy="12.8512" rx="2.00949" ry="1.64763" fill="#46A2E5"/>
<ellipse cx="43.0031" cy="24.0553" rx="2.00949" ry="1.64763" fill="#46A2E5"/>
<ellipse cx="43.0031" cy="35.2592" rx="2.00949" ry="1.64763" fill="#46A2E5"/>
<ellipse cx="43.0031" cy="46.4631" rx="2.00949" ry="1.64763" fill="#46A2E5"/>
<ellipse cx="43.0031" cy="57.6672" rx="2.00949" ry="1.64763" fill="#46A2E5"/>
<ellipse cx="43.0031" cy="68.871" rx="2.00949" ry="1.64763" fill="#46A2E5"/>
<ellipse cx="43.0031" cy="80.0746" rx="2.00949" ry="1.64763" fill="#46A2E5"/>
<ellipse cx="43.0031" cy="91.2785" rx="2.00949" ry="1.64763" fill="#46A2E5"/>
<ellipse cx="43.0031" cy="102.483" rx="2.00949" ry="1.64763" fill="#46A2E5"/>
<ellipse cx="43.0031" cy="113.686" rx="2.00949" ry="1.64763" fill="#46A2E5"/>
<ellipse cx="56.6677" cy="1.64763" rx="2.00949" ry="1.64763" fill="#46A2E5"/>
<ellipse cx="56.6677" cy="12.8512" rx="2.00949" ry="1.64763" fill="#46A2E5"/>
<ellipse cx="56.6677" cy="24.0553" rx="2.00949" ry="1.64763" fill="#46A2E5"/>
<ellipse cx="56.6677" cy="35.2592" rx="2.00949" ry="1.64763" fill="#46A2E5"/>
<ellipse cx="56.6677" cy="46.4631" rx="2.00949" ry="1.64763" fill="#46A2E5"/>
<ellipse cx="56.6677" cy="57.6672" rx="2.00949" ry="1.64763" fill="#46A2E5"/>
<ellipse cx="56.6677" cy="68.871" rx="2.00949" ry="1.64763" fill="#46A2E5"/>
<ellipse cx="56.6677" cy="80.0746" rx="2.00949" ry="1.64763" fill="#46A2E5"/>
<ellipse cx="56.6677" cy="91.2785" rx="2.00949" ry="1.64763" fill="#46A2E5"/>
<ellipse cx="56.6677" cy="102.483" rx="2.00949" ry="1.64763" fill="#46A2E5"/>
<ellipse cx="56.6677" cy="113.686" rx="2.00949" ry="1.64763" fill="#46A2E5"/>
<ellipse cx="70.3322" cy="1.64763" rx="2.00949" ry="1.64763" fill="#46A2E5"/>
<ellipse cx="70.3322" cy="12.8512" rx="2.00949" ry="1.64763" fill="#46A2E5"/>
<ellipse cx="70.3322" cy="24.0553" rx="2.00949" ry="1.64763" fill="#46A2E5"/>
<ellipse cx="70.3322" cy="35.2592" rx="2.00949" ry="1.64763" fill="#46A2E5"/>
<ellipse cx="70.3322" cy="46.4631" rx="2.00949" ry="1.64763" fill="#46A2E5"/>
<ellipse cx="70.3322" cy="57.6672" rx="2.00949" ry="1.64763" fill="#46A2E5"/>
<ellipse cx="70.3322" cy="68.871" rx="2.00949" ry="1.64763" fill="#46A2E5"/>
<ellipse cx="70.3322" cy="80.0746" rx="2.00949" ry="1.64763" fill="#46A2E5"/>
<ellipse cx="70.3322" cy="91.2785" rx="2.00949" ry="1.64763" fill="#46A2E5"/>
<ellipse cx="70.3322" cy="102.483" rx="2.00949" ry="1.64763" fill="#46A2E5"/>
<ellipse cx="70.3322" cy="113.686" rx="2.00949" ry="1.64763" fill="#46A2E5"/>
<ellipse cx="83.9968" cy="1.64763" rx="2.00949" ry="1.64763" fill="#46A2E5"/>
<ellipse cx="83.9968" cy="12.8512" rx="2.00949" ry="1.64763" fill="#46A2E5"/>
<ellipse cx="83.9968" cy="24.0553" rx="2.00949" ry="1.64763" fill="#46A2E5"/>
<ellipse cx="83.9968" cy="35.2592" rx="2.00949" ry="1.64763" fill="#46A2E5"/>
<ellipse cx="83.9968" cy="46.4631" rx="2.00949" ry="1.64763" fill="#46A2E5"/>
<ellipse cx="83.9968" cy="57.6672" rx="2.00949" ry="1.64763" fill="#46A2E5"/>
<ellipse cx="83.9968" cy="68.871" rx="2.00949" ry="1.64763" fill="#46A2E5"/>
<ellipse cx="83.9968" cy="80.0746" rx="2.00949" ry="1.64763" fill="#46A2E5"/>
<ellipse cx="83.9968" cy="91.2785" rx="2.00949" ry="1.64763" fill="#46A2E5"/>
<ellipse cx="83.9968" cy="102.483" rx="2.00949" ry="1.64763" fill="#46A2E5"/>
<ellipse cx="83.9968" cy="113.686" rx="2.00949" ry="1.64763" fill="#46A2E5"/>
<ellipse cx="97.6613" cy="1.64763" rx="2.00949" ry="1.64763" fill="#46A2E5"/>
<ellipse cx="97.6613" cy="12.8512" rx="2.00949" ry="1.64763" fill="#46A2E5"/>
<ellipse cx="97.6613" cy="24.0553" rx="2.00949" ry="1.64763" fill="#46A2E5"/>
<ellipse cx="97.6613" cy="35.2592" rx="2.00949" ry="1.64763" fill="#46A2E5"/>
<ellipse cx="97.6613" cy="46.4631" rx="2.00949" ry="1.64763" fill="#46A2E5"/>
<ellipse cx="97.6613" cy="57.6672" rx="2.00949" ry="1.64763" fill="#46A2E5"/>
<ellipse cx="97.6613" cy="68.871" rx="2.00949" ry="1.64763" fill="#46A2E5"/>
<ellipse cx="97.6613" cy="80.0746" rx="2.00949" ry="1.64763" fill="#46A2E5"/>
<ellipse cx="97.6613" cy="91.2785" rx="2.00949" ry="1.64763" fill="#46A2E5"/>
<ellipse cx="97.6613" cy="102.483" rx="2.00949" ry="1.64763" fill="#46A2E5"/>
<ellipse cx="97.6613" cy="113.686" rx="2.00949" ry="1.64763" fill="#46A2E5"/>
<ellipse cx="111.326" cy="1.64763" rx="2.00949" ry="1.64763" fill="#46A2E5"/>
<ellipse cx="111.326" cy="12.8512" rx="2.00949" ry="1.64763" fill="#46A2E5"/>
<ellipse cx="111.326" cy="24.0553" rx="2.00949" ry="1.64763" fill="#46A2E5"/>
<ellipse cx="111.326" cy="35.2592" rx="2.00949" ry="1.64763" fill="#46A2E5"/>
<ellipse cx="111.326" cy="46.4631" rx="2.00949" ry="1.64763" fill="#46A2E5"/>
<ellipse cx="111.326" cy="57.6672" rx="2.00949" ry="1.64763" fill="#46A2E5"/>
<ellipse cx="111.326" cy="68.871" rx="2.00949" ry="1.64763" fill="#46A2E5"/>
<ellipse cx="111.326" cy="80.0746" rx="2.00949" ry="1.64763" fill="#46A2E5"/>
<ellipse cx="111.326" cy="91.2785" rx="2.00949" ry="1.64763" fill="#46A2E5"/>
<ellipse cx="111.326" cy="102.483" rx="2.00949" ry="1.64763" fill="#46A2E5"/>
<ellipse cx="111.326" cy="113.686" rx="2.00949" ry="1.64763" fill="#46A2E5"/>
<ellipse cx="124.99" cy="1.64763" rx="2.00949" ry="1.64763" fill="#46A2E5"/>
<ellipse cx="124.99" cy="12.8512" rx="2.00949" ry="1.64763" fill="#46A2E5"/>
<ellipse cx="124.99" cy="24.0553" rx="2.00949" ry="1.64763" fill="#46A2E5"/>
<ellipse cx="124.99" cy="35.2592" rx="2.00949" ry="1.64763" fill="#46A2E5"/>
<ellipse cx="124.99" cy="46.4631" rx="2.00949" ry="1.64763" fill="#46A2E5"/>
<ellipse cx="124.99" cy="57.6672" rx="2.00949" ry="1.64763" fill="#46A2E5"/>
<ellipse cx="124.99" cy="68.871" rx="2.00949" ry="1.64763" fill="#46A2E5"/>
<ellipse cx="124.99" cy="80.0746" rx="2.00949" ry="1.64763" fill="#46A2E5"/>
<ellipse cx="124.99" cy="91.2785" rx="2.00949" ry="1.64763" fill="#46A2E5"/>
<ellipse cx="124.99" cy="102.483" rx="2.00949" ry="1.64763" fill="#46A2E5"/>
<ellipse cx="124.99" cy="113.686" rx="2.00949" ry="1.64763" fill="#46A2E5"/>
</svg>
